# WaveFront *.obj file (generated by CINEMA 4D)

mtllib ./ammo_box.mtl

v -135.03550720214844 -45.17473602294922 81.17216491699219
v -135.03550720214844 45.17473602294922 81.17216491699219
v 135.03550720214844 -45.17473602294922 81.17216491699219
v 135.03550720214844 45.17473602294922 81.17216491699219
v 135.03550720214844 -45.17473602294922 -81.17216491699219
v 135.03550720214844 45.17473602294922 -81.17216491699219
v -135.03550720214844 -45.17473602294922 -81.17216491699219
v -135.03550720214844 45.17473602294922 -81.17216491699219
# 8 vertices

vn 0 0 1
vn 1 0 0
vn 0 0 -1
vn -1 0 0
vn 0 1 0
vn 0 -1 0
# 6 normals

vt 0.20987685024738 0.45461523532867 0
vt 0.20987685024738 0.54538488388062 0
vt 0.48120394349098 0.54538488388062 0
vt 0.48120394349098 0.45461523532867 0
vt 0.47974309325218 0.45461523532867 0
vt 0.47974309325218 0.54538488388062 0
vt 0.64284247159958 0.54538488388062 0
vt 0.64284247159958 0.45461523532867 0
vt 0.91416954994202 0.54538488388062 0
vt 0.91416954994202 0.45461523532867 0
vt 0.04531660676003 0.45461523532867 0
vt 0.04531660676003 0.54538488388062 0
vt 0.20841598510742 0.54538488388062 0
vt 0.20841598510742 0.45461523532867 0
vt 0.20841598510742 0.70848423242569 0
vt 0.47974309325218 0.70848423242569 0
vt 0.20841598510742 0.29151582717896 0
vt 0.47974309325218 0.29151582717896 0
# 18 texture coordinates

o Cube
usemtl Mat
f 3/4/1 4/3/1 2/2/1 1/1/1
f 5/8/2 6/7/2 4/6/2 3/5/2
f 7/10/3 8/9/3 6/7/3 5/8/3
f 1/14/4 2/13/4 8/12/4 7/11/4
f 4/6/5 6/16/5 8/15/5 2/13/5
f 5/18/6 3/5/6 1/14/6 7/17/6

